<?xml version="1.0" encoding="UTF-8"?>
<svg width="550" height="200" viewBox="0 0 550 200" fill="currentColor" id="pinout-diagram" xmlns="http://www.w3.org/2000/svg" xmlns:xlink="http://www.w3.org/1999/xlink">
	<title>A pinout diagram for the USB-C receptacle</title>
	<defs>
		<rect id="r" x="1.5" width="27" height="9" fill="#ffff00" stroke="#000000" stroke-width="1"/>
		<rect id="s" x="-1.5" width="33" height="21" fill="none" stroke="currentColor" stroke-width="1"/>
		<g id="p">
			<use xlink:href="#r" y="86.5"/>
			<use xlink:href="#r" y="104.5"/>
			<use xlink:href="#s" y="21.5"/>
			<use xlink:href="#s" y="157.5"/>
		</g>
	</defs>
	<rect x="4" y="56" rx="44" ry="44" width="542" height="88" fill="none" stroke="currentColor" stroke-width="8"/>
	<rect x="39" y="90" rx="2" ry="2" width="472" height="20" fill="currentColor"/>
	<use xlink:href="#p" x="40"/>
	<use xlink:href="#p" x="80"/>
	<use xlink:href="#p" x="120"/>
	<use xlink:href="#p" x="160"/>
	<use xlink:href="#p" x="200"/>
	<use xlink:href="#p" x="240"/>
	<use xlink:href="#p" x="280"/>
	<use xlink:href="#p" x="320"/>
	<use xlink:href="#p" x="360"/>
	<use xlink:href="#p" x="400"/>
	<use xlink:href="#p" x="440"/>
	<use xlink:href="#p" x="480"/>
	<g transform="translate(15,5)scale(0.01)">
		<path d="m3489,271 276,-751h106l277,751h-103l-80,-229h-299l-81,229zm294,-558 -89,252h246l-86,-252 -34,-106h-2q-20,63 -35,106z"/>
		<path d="m4352,271v-524h-158v-59q160,-4 177,-141h68v723z"/>
		<path d="m7378,271 276,-751h106l277,751h-103l-80,-229h-299l-81,229zm294,-558 -89,252h246l-86,-252 -34,-106h-2q-20,63 -35,106z"/>
		<path d="m8081,271q3,-66 22,-117 20,-50 66,-92 47,-42 73,-60 27,-19 94,-58 2,-2 3,-2 1,-1 3,-2 2,-1 3,-2 2,-1 4,-2 83,-48 118,-83 35,-36 35,-96 0,-66 -43,-107 -42,-41 -113,-41 -72,0 -114,45 -41,44 -41,144h-92q0,-127 68,-195 68,-67 187,-67 108,0 174,62 66,62 66,159 0,39 -12,71 -12,33 -24,52 -13,20 -46,46 -34,25 -50,35 -16,9 -63,36 -9,5 -15,8 -50,28 -84,49 -33,21 -68,59 -36,37 -45,73h393v84z"/>
		<path d="m11372,271 276,-751h106l277,751h-103l-80,-229h-299l-81,229zm294,-558 -89,252h246l-86,-252 -34,-106h-2q-20,63 -35,106z"/>
		<path d="m12347,287q-123,0 -204,-67 -81,-67 -83,-186h87q2,86 54,133 53,46 143,46 78,0 124,-38 46,-39 46,-113 0,-68 -49,-104 -48,-36 -140,-36h-45v-68h44q83,0 126,-33 43,-33 43,-91 0,-58 -45,-91 -44,-35 -111,-35 -77,0 -122,46 -44,45 -44,121h-86q1,-107 69,-171 68,-65 186,-65 103,0 171,54 68,52 68,144 0,111 -119,151v3q145,38 145,184 0,101 -73,159 -72,58 -185,58z"/>
		<path d="m15373,271 276,-751h106l277,751h-103l-80,-229h-299l-81,229zm294,-558 -89,252h246l-86,-252 -34,-106h-2q-20,63 -35,106z"/>
		<path d="m16410,271v-176h-339v-79l356,-471h69v480h119v70h-119v176zm-254,-250v3h254v-337h-2z"/>
		<path d="m19380,271 276,-751h106l277,751h-103l-80,-229h-299l-81,229zm294,-558 -89,252h246l-86,-252 -34,-106h-2q-20,63 -35,106z"/>
		<path d="m20339,287q-112,0 -187,-62 -74,-62 -78,-162h87q8,68 55,107 46,39 122,39 77,0 123,-47 46,-48 46,-127 0,-79 -48,-125 -47,-46 -121,-46 -109,0 -162,75h-85l80,-386h383v79h-321l-47,216h2q64,-61 165,-61 101,0 172,68 72,68 72,183 0,113 -72,182 -72,68 -186,68z"/>
		<path d="m23365,271 276,-751h106l277,751h-103l-80,-229h-299l-81,229zm294,-558 -89,252h246l-86,-252 -34,-106h-2q-20,63 -35,106z"/>
		<path d="m24363,287q-110,0 -180,-64 -56,-50 -79,-125 -23,-76 -23,-191 0,-171 71,-271 72,-101 207,-101 102,0 160,58 58,57 67,142h-87q-5,-54 -42,-89 -36,-36 -96,-36 -101,0 -147,76 -45,75 -47,214h2q72,-100 197,-100 99,0 167,71 69,70 70,170 1,101 -70,173 -70,72 -171,72zm-2,-71q70,0 116,-47 46,-48 46,-124 0,-76 -47,-124 -47,-48 -118,-48 -78,0 -126,47 -48,47 -48,124 0,76 50,124 50,48 127,48z"/>
		<path d="m27401,271 276,-751h106l277,751h-103l-80,-229h-299l-81,229zm294,-558 -89,252h246l-86,-252 -34,-106h-2q-20,63 -35,106z"/>
		<path d="m28197,271q12,-186 99,-362 87,-176 210,-276v-2h-411v-79h503v72q-122,107 -209,277 -87,169 -98,370z"/>
		<path d="m31364,271 276,-751h106l277,751h-103l-80,-229h-299l-81,229zm294,-558 -89,252h246l-86,-252 -34,-106h-2q-20,63 -35,106z"/>
		<path d="m32343,287q-52,0 -100,-13 -46,-12 -87,-37 -40,-25 -64,-69 -24,-44 -24,-103 0,-139 148,-187v-3q-51,-20 -82,-59 -30,-40 -30,-94 0,-84 67,-135 68,-53 169,-53 102,0 169,51 67,51 67,137 0,110 -110,153v3q64,19 105,68 41,48 41,119 0,113 -79,168 -78,54 -190,54zm0,-73q84,0 132,-39 48,-40 48,-109 0,-71 -49,-112 -48,-41 -134,-41 -85,0 -133,41 -48,41 -48,112 0,70 48,109 49,39 137,39zm-113,-402q41,31 110,31 69,0 109,-31 41,-31 41,-86 0,-55 -41,-86 -40,-31 -109,-31 -69,0 -110,31 -40,31 -40,86 0,55 40,86z"/>
		<path d="m35365,271 276,-751h106l277,751h-103l-80,-229h-299l-81,229zm294,-558 -89,252h246l-86,-252 -34,-106h-2q-20,63 -35,106z"/>
		<path d="m36333,287q-107,0 -176,-58 -68,-59 -72,-153h89q5,61 46,99 41,38 111,38 80,0 122,-47 58,-62 64,-234h-2q-74,91 -198,91 -99,0 -169,-70 -69,-71 -70,-171 -1,-102 71,-173 72,-72 181,-72 97,0 166,54 60,46 84,124 24,78 24,203 0,225 -101,314 -66,58 -169,58zm-5,-337q81,0 128,-47 48,-48 48,-125 0,-76 -51,-123 -50,-48 -124,-48 -76,0 -123,48 -47,47 -47,123 0,76 48,124 49,48 121,48z"/>
		<path d="m39163,271 276,-751h106l277,751h-103l-80,-229h-299l-81,229zm294,-558 -89,252h246l-86,-252 -34,-106h-2q-20,63 -35,106z"/>
		<path d="m40026,271v-524h-157v-59q160,-4 177,-141h68v723z"/>
		<path d="m40522,287q-131,0 -206,-101 -74,-102 -74,-275 0,-174 76,-275 77,-101 205,-101 128,0 203,101 76,100 76,275 0,174 -74,275 -72,101 -206,101zm-141,-155q48,79 142,79 93,0 140,-78 47,-79 47,-222 0,-141 -48,-220 -47,-80 -139,-80 -93,0 -142,79 -47,79 -47,222 0,141 47,221z"/>
		<path d="m43307,271 276,-751h106l277,751h-103l-80,-229h-299l-81,229zm294,-558 -89,252h246l-86,-252 -34,-106h-2q-20,63 -35,106z"/>
		<path d="m44170,271v-524h-157v-59q160,-4 177,-141h68v723z"/>
		<path d="m44533,271v-524h-157v-59q160,-4 177,-141h68v723z"/>
		<path d="m47197,271 276,-751h106l277,751h-103l-80,-229h-299l-81,229zm294,-558 -89,252h246l-86,-252 -34,-106h-2q-20,63 -35,106z"/>
		<path d="m48060,271v-524h-157v-59q160,-4 177,-141h68v723z"/>
		<path d="m48263,271q3,-66 22,-117 20,-50 66,-92 47,-42 74,-60 27,-19 94,-58 2,-2 3,-2 1,-1 3,-2 2,-1 3,-2 2,-1 4,-2 83,-48 118,-83 35,-36 35,-96 0,-66 -43,-107 -42,-41 -113,-41 -72,0 -114,45 -41,44 -41,144h-92q0,-127 68,-195 68,-67 187,-67 108,0 174,62 66,62 66,159 0,39 -12,71 -12,33 -24,52 -13,20 -46,46 -34,25 -50,35 -16,9 -63,36 -9,5 -15,8 -50,28 -84,49 -33,21 -68,59 -36,37 -45,73h393v84z"/>
	</g>
	<g transform="translate(15,32.5)scale(0.01)">
		<path d="m3546,271 -27,-99h-2q-82,114 -234,114 -157,0 -255,-108 -98,-108 -98,-280 0,-172 95,-282 96,-111 267,-111 128,0 207,65 80,64 99,176h-98q-16,-77 -69,-118 -54,-42 -141,-42 -130,0 -196,86 -66,86 -66,226 0,138 72,223 72,84 187,84 110,0 168,-65 59,-65 59,-166v-18h-226v-82h320v397z"/>
		<path d="m3737,271v-751h100l342,522 55,97h2v-618h88v751h-97l-344,-523 -56,-93h-2v616z"/>
		<path d="m4465,271v-751h273q165,0 249,102 84,102 84,276 0,173 -87,273 -87,100 -253,100zm95,-83h168q247,0 247,-290 0,-296 -239,-296h-175z"/>
		<path d="m6904,-396v-83h594v83h-250v668h-94v-668z"/>
		<path d="m7536,271 260,-384 -242,-366h109l186,300h2l190,-300h104l-246,368 253,383h-113l-193,-316h-2l-202,316z"/>
		<path d="m8361,271v-524h-158v-59q160,-4 177,-141h68v723z"/>
		<path d="m8587,-37v-67h204v-210h69v210h204v67h-204v210h-69v-210z"/>
		<path d="m10904,-396v-83h594v83h-250v668h-94v-668z"/>
		<path d="m11536,271 260,-384 -242,-366h109l186,300h2l190,-300h104l-246,368 253,383h-113l-193,-316h-2l-202,316z"/>
		<path d="m12361,271v-524h-158v-59q160,-4 177,-141h68v723z"/>
		<path d="m12587,-37v-67h477v67z"/>
		<path d="m14930,271 -261,-751h102l185,559 29,101h2q18,-67 29,-101l183,-559h99l-264,751z"/>
		<path d="m15378,271v-751h318q119,0 181,65 48,50 48,128 0,120 -121,158v3q67,16 109,63 42,46 42,119 0,86 -55,144 -66,71 -188,71zm94,-85h236q78,0 118,-38 34,-36 34,-87 0,-68 -43,-104 -43,-36 -114,-36h-230zm0,-344h212q68,0 107,-33 39,-33 39,-90 0,-55 -36,-85 -35,-31 -98,-31h-225z"/>
		<path d="m16329,283q-131,0 -210,-62 -78,-62 -78,-192v-508h94v499q0,183 196,183 190,0 190,-183v-499h94v508q0,129 -80,192 -79,62 -208,62z"/>
		<path d="m17028,286q-151,0 -233,-75 -81,-75 -87,-194h92q19,193 232,193 81,0 129,-36 49,-37 49,-105 0,-30 -12,-54 -12,-23 -28,-38 -16,-15 -48,-27 -33,-13 -61,-20 -27,-7 -76,-18 -58,-13 -96,-25 -38,-14 -76,-37 -38,-23 -57,-59 -18,-37 -18,-88 0,-92 69,-145 70,-54 186,-54 253,0 285,234h-89q-10,-80 -60,-120 -49,-41 -133,-41 -78,0 -124,31 -45,31 -45,89 0,25 9,45 10,19 26,33 17,13 43,23 27,10 54,18 26,6 64,14 53,10 86,20 34,8 75,26 41,18 63,41 23,23 39,61 17,37 17,86 0,103 -77,162 -76,58 -200,58z"/>
		<path d="m19468,286q-159,0 -255,-109 -97,-109 -97,-281 0,-170 96,-280 97,-111 260,-111 128,0 207,66 79,66 94,173h-92q-14,-71 -69,-114 -55,-43 -142,-43 -121,0 -189,87 -68,86 -68,223 0,139 70,224 71,84 188,84 101,0 155,-59 56,-59 63,-148h93q-1,56 -26,114 -24,58 -64,97 -81,79 -225,79z"/>
		<path d="m20212,286q-159,0 -255,-109 -97,-109 -97,-281 0,-170 96,-280 97,-111 260,-111 128,0 207,66 79,66 94,173h-92q-14,-71 -69,-114 -55,-43 -142,-43 -121,0 -189,87 -68,86 -68,223 0,139 70,224 71,84 188,84 101,0 155,-59 56,-59 63,-148h93q-1,56 -26,114 -24,58 -64,97 -81,79 -225,79z"/>
		<path d="m20756,271v-524h-157v-59q160,-4 177,-141h68v723z"/>
		<path d="m23417,271v-751h273q165,0 249,102 84,102 84,276 0,173 -87,273 -87,100 -253,100zm94,-83h168q247,0 247,-290 0,-296 -239,-296h-175z"/>
		<path d="m24121,-37v-67h204v-210h69v210h204v67h-204v210h-69v-210z"/>
		<path d="m27417,271v-751h273q165,0 249,102 84,102 84,276 0,173 -87,273 -87,100 -253,100zm94,-83h168q247,0 247,-290 0,-296 -239,-296h-175z"/>
		<path d="m28121,-37v-67h477v67z"/>
		<path d="m31150,286q-151,0 -233,-75 -81,-75 -87,-194h92q19,193 232,193 81,0 129,-36 49,-37 49,-105 0,-30 -12,-54 -12,-23 -28,-38 -16,-15 -48,-27 -33,-13 -61,-20 -27,-7 -76,-18 -58,-13 -96,-25 -38,-14 -76,-37 -38,-23 -57,-59 -18,-37 -18,-88 0,-92 69,-145 70,-54 186,-54 253,0 285,234h-89q-11,-80 -60,-120 -49,-41 -133,-41 -78,0 -124,31 -45,31 -45,89 0,25 9,45 11,19 26,33 17,13 43,23 27,10 54,18 26,6 64,14 52,10 86,20 34,8 75,26 41,18 63,41 23,23 39,61 17,37 17,86 0,103 -77,162 -76,58 -200,58z"/>
		<path d="m31534,271v-751h318q119,0 181,65 48,50 48,128 0,120 -121,158v3q67,16 109,63 42,46 42,119 0,86 -55,144 -66,71 -188,71zm94,-85h236q78,0 118,-38 34,-36 34,-87 0,-68 -43,-104 -43,-36 -114,-36h-230zm0,-344h212q68,0 107,-33 39,-33 39,-90 0,-55 -36,-85 -35,-31 -98,-31h-225z"/>
		<path d="m32485,283q-131,0 -210,-62 -78,-62 -78,-192v-508h94v499q0,183 196,183 190,0 190,-183v-499h94v508q0,129 -80,192 -79,62 -208,62z"/>
		<path d="m33024,271v-524h-157v-59q160,-4 177,-141h68v723z"/>
		<path d="m34930,271 -261,-751h102l185,559 29,101h2q18,-67 29,-101l183,-559h99l-264,751z"/>
		<path d="m35378,271v-751h318q119,0 181,65 48,50 48,128 0,120 -121,158v3q67,16 109,63 42,46 42,119 0,86 -55,144 -66,71 -188,71zm94,-85h236q78,0 118,-38 34,-36 34,-87 0,-68 -43,-104 -43,-36 -114,-36h-230zm0,-344h212q68,0 107,-33 39,-33 39,-90 0,-55 -36,-85 -35,-31 -98,-31h-225z"/>
		<path d="m36329,283q-131,0 -210,-62 -78,-62 -78,-192v-508h94v499q0,183 196,183 190,0 190,-183v-499h94v508q0,129 -80,192 -79,62 -208,62z"/>
		<path d="m37028,286q-151,0 -233,-75 -81,-75 -87,-194h92q19,193 232,193 81,0 129,-36 49,-37 49,-105 0,-30 -12,-54 -12,-23 -28,-38 -16,-15 -48,-27 -33,-13 -61,-20 -27,-7 -76,-18 -58,-13 -96,-25 -38,-14 -76,-37 -38,-23 -57,-59 -18,-37 -18,-88 0,-92 69,-145 70,-54 186,-54 253,0 285,234h-89q-11,-80 -60,-120 -49,-41 -133,-41 -78,0 -124,31 -45,31 -45,89 0,25 9,45 11,19 26,33 17,13 43,23 27,10 54,18 26,6 64,14 52,10 86,20 34,8 75,26 41,18 63,41 23,23 39,61 17,37 17,86 0,103 -77,162 -76,58 -200,58z"/>
		<path d="m38818,271v-751h351q99,0 160,57 62,57 62,149 0,144 -130,186v3q56,20 79,63 24,42 29,128 11,144 35,161v4h-102q-12,-9 -17,-40 -4,-30 -11,-128 -5,-82 -41,-116 -35,-34 -111,-34h-209v317zm94,-669v275h223q78,0 118,-36 40,-37 40,-102 0,-70 -36,-104 -36,-34 -117,-34z"/>
		<path d="m39449,271 260,-384 -242,-366h109l186,300h2l190,-300h104l-246,368 253,383h-113l-193,-316h-2l-202,316z"/>
		<path d="m40113,271q3,-66 22,-117 20,-50 66,-92 47,-42 74,-60 27,-19 94,-58 2,-2 3,-2 1,-1 3,-2 2,-1 3,-2 2,-1 4,-2 83,-48 118,-83 35,-36 35,-96 0,-66 -43,-107 -42,-41 -113,-41 -72,0 -114,45 -41,44 -41,144h-92q0,-127 68,-195 68,-67 187,-67 108,0 174,62 66,62 66,159 0,39 -12,71 -12,33 -24,52 -13,20 -46,46 -34,25 -50,35 -16,9 -63,36 -9,5 -15,8 -50,28 -84,49 -33,21 -68,59 -36,37 -45,73h393v84z"/>
		<path d="m40720,-37v-67h477v67z"/>
		<path d="m42818,271v-751h351q99,0 160,57 62,57 62,149 0,144 -130,186v3q56,20 79,63 24,42 29,128 11,144 35,161v4h-102q-12,-9 -17,-40 -4,-30 -11,-128 -5,-82 -41,-116 -35,-34 -111,-34h-209v317zm94,-669v275h223q78,0 118,-36 40,-37 40,-102 0,-70 -36,-104 -36,-34 -117,-34z"/>
		<path d="m43449,271 260,-384 -242,-366h109l186,300h2l190,-300h104l-246,368 253,383h-113l-193,-316h-2l-202,316z"/>
		<path d="m44113,271q3,-66 22,-117 20,-50 66,-92 47,-42 74,-60 27,-19 94,-58 2,-2 3,-2 1,-1 3,-2 2,-1 3,-2 2,-1 4,-2 83,-48 118,-83 35,-36 35,-96 0,-66 -43,-107 -42,-41 -113,-41 -72,0 -114,45 -41,44 -41,144h-92q0,-127 68,-195 68,-67 187,-67 108,0 174,62 66,62 66,159 0,39 -12,71 -12,33 -24,52 -13,20 -46,46 -34,25 -50,35 -16,9 -63,36 -9,5 -15,8 -50,28 -84,49 -33,21 -68,59 -36,37 -45,73h393v84z"/>
		<path d="m44720,-37v-67h204v-210h69v210h204v67h-204v210h-69v-210z"/>
		<path d="m47546,271 -27,-99h-2q-82,114 -234,114 -157,0 -255,-108 -98,-108 -98,-280 0,-172 94,-282 96,-111 267,-111 128,0 207,65 80,64 99,176h-98q-16,-77 -69,-118 -54,-42 -141,-42 -130,0 -196,86 -66,86 -66,226 0,138 72,223 72,84 187,84 110,0 168,-65 59,-65 59,-166v-18h-226v-82h320v397z"/>
		<path d="m47737,271v-751h100l342,522 55,97h2v-618h88v751h-97l-344,-523 -56,-93h-2v616z"/>
		<path d="m48465,271v-751h273q165,0 249,102 84,102 84,276 0,173 -87,273 -87,100 -253,100zm94,-83h168q247,0 247,-290 0,-296 -239,-296h-175z"/>
	</g>
	<g transform="translate(15,197)scale(0.01)">
		<path d="m3259,271v-751h318q119,0 181,65 48,50 48,128 0,120 -121,158v3q67,16 109,63 42,46 42,119 0,86 -55,144 -66,71 -188,71zm95,-85h236q78,0 118,-38 34,-36 34,-87 0,-68 -43,-104 -43,-36 -114,-36h-230zm0,-344h212q68,0 107,-33 39,-33 39,-90 0,-55 -36,-85 -35,-31 -98,-31h-225z"/>
		<path d="m4058,271v-524h-158v-59q160,-4 177,-141h68v723z"/>
		<path d="m4260,271q3,-66 22,-117 20,-50 66,-92 47,-42 73,-60 27,-19 95,-58 2,-2 3,-2 1,-1 3,-2 2,-1 3,-2 2,-1 4,-2 83,-48 118,-83 35,-36 35,-96 0,-66 -43,-107 -42,-41 -113,-41 -72,0 -114,45 -41,44 -41,144h-92q0,-127 68,-195 68,-67 187,-67 108,0 174,62 66,62 66,159 0,39 -12,71 -12,33 -24,52 -13,20 -46,46 -34,25 -50,35 -16,9 -63,36 -9,5 -15,8 -50,28 -84,49 -33,21 -68,59 -36,37 -45,73h393v84z"/>
		<path d="m7369,271v-751h318q119,0 181,65 48,50 48,128 0,120 -121,158v3q67,16 109,63 42,46 42,119 0,86 -55,144 -66,71 -188,71zm94,-85h236q78,0 118,-38 34,-36 34,-87 0,-68 -43,-104 -43,-36 -114,-36h-230zm0,-344h212q68,0 107,-33 39,-33 39,-90 0,-55 -36,-85 -35,-31 -98,-31h-225z"/>
		<path d="m8168,271v-524h-158v-59q160,-4 177,-141h68v723z"/>
		<path d="m8531,271v-524h-158v-59q160,-4 177,-141h68v723z"/>
		<path d="m11225,271v-751h318q119,0 181,65 48,50 48,128 0,120 -121,158v3q67,16 109,63 42,46 42,119 0,86 -55,144 -66,71 -188,71zm94,-85h236q78,0 118,-38 34,-36 34,-87 0,-68 -43,-104 -43,-36 -114,-36h-230zm0,-344h212q68,0 107,-33 39,-33 39,-90 0,-55 -36,-85 -35,-31 -98,-31h-225z"/>
		<path d="m12024,271v-524h-158v-59q160,-4 177,-141h68v723z"/>
		<path d="m12520,287q-131,0 -206,-101 -73,-102 -73,-275 0,-174 76,-275 77,-101 205,-101 128,0 203,101 76,100 76,275 0,174 -73,275 -72,101 -206,101zm-141,-155q48,79 142,79 93,0 140,-78 47,-79 47,-222 0,-141 -48,-220 -47,-80 -139,-80 -93,0 -142,79 -47,79 -47,222 0,141 47,221z"/>
		<path d="m15427,271v-751h318q119,0 181,65 48,50 48,128 0,120 -121,158v3q67,16 109,63 42,46 42,119 0,86 -55,144 -66,71 -188,71zm94,-85h236q78,0 118,-38 34,-36 34,-87 0,-68 -43,-104 -43,-36 -114,-36h-230zm0,-344h212q68,0 107,-33 39,-33 39,-90 0,-55 -36,-85 -35,-31 -98,-31h-225z"/>
		<path d="m16331,287q-107,0 -176,-58 -68,-59 -72,-153h89q5,61 46,99 41,38 111,38 80,0 122,-47 58,-62 64,-234h-2q-74,91 -198,91 -99,0 -169,-70 -69,-71 -70,-171 -1,-102 71,-173 72,-72 181,-72 97,0 166,54 60,46 84,124 24,78 24,203 0,225 -101,314 -66,58 -169,58zm-5,-337q81,0 128,-47 48,-48 48,-125 0,-76 -51,-123 -50,-48 -124,-48 -76,0 -123,48 -47,47 -47,123 0,76 48,124 49,48 121,48z"/>
		<path d="m19426,271v-751h318q119,0 181,65 48,50 48,128 0,120 -121,158v3q67,16 109,63 42,46 42,119 0,86 -55,144 -66,71 -188,71zm94,-85h236q78,0 118,-38 34,-36 34,-87 0,-68 -43,-104 -43,-36 -114,-36h-230zm0,-344h212q68,0 107,-33 39,-33 39,-90 0,-55 -36,-85 -35,-31 -98,-31h-225z"/>
		<path d="m20341,287q-53,0 -100,-13 -46,-12 -87,-37 -40,-25 -64,-69 -24,-44 -24,-103 0,-139 148,-187v-3q-51,-20 -82,-59 -30,-40 -30,-94 0,-84 67,-135 68,-53 169,-53 102,0 169,51 67,51 67,137 0,110 -110,153v3q64,19 105,68 41,48 41,119 0,113 -79,168 -78,54 -190,54zm0,-73q84,0 132,-39 48,-40 48,-109 0,-71 -49,-112 -48,-41 -134,-41 -85,0 -133,41 -48,41 -48,112 0,70 48,109 49,39 137,39zm-113,-402q41,31 110,31 69,0 109,-31 41,-31 41,-86 0,-55 -41,-86 -40,-31 -109,-31 -69,0 -110,31 -40,31 -40,86 0,55 40,86z"/>
		<path d="m23463,271v-751h318q119,0 181,65 48,50 48,128 0,120 -121,158v3q67,16 109,63 42,46 42,119 0,86 -55,144 -66,71 -188,71zm94,-85h236q78,0 118,-38 34,-36 34,-87 0,-68 -43,-104 -43,-36 -114,-36h-230zm0,-344h212q68,0 107,-33 39,-33 39,-90 0,-55 -36,-85 -35,-31 -98,-31h-225z"/>
		<path d="m24195,271q12,-186 99,-362 87,-176 210,-276v-2h-411v-79h503v72q-122,107 -209,277 -87,169 -98,370z"/>
		<path d="m27427,271v-751h318q119,0 181,65 48,50 48,128 0,120 -121,158v3q67,16 109,63 42,46 42,119 0,86 -55,144 -66,71 -188,71zm94,-85h236q78,0 118,-38 34,-36 34,-87 0,-68 -43,-104 -43,-36 -114,-36h-230zm0,-344h212q68,0 107,-33 39,-33 39,-90 0,-55 -36,-85 -35,-31 -98,-31h-225z"/>
		<path d="m28361,287q-110,0 -180,-64 -56,-50 -79,-125 -23,-76 -23,-191 0,-171 71,-271 72,-101 207,-101 102,0 160,58 58,57 67,142h-87q-5,-54 -42,-89 -36,-36 -96,-36 -101,0 -147,76 -45,75 -47,214h2q72,-100 197,-100 99,0 167,71 69,70 70,170 1,101 -70,173 -70,72 -171,72zm-2,-71q70,0 115,-47 46,-48 46,-124 0,-76 -47,-124 -47,-48 -118,-48 -78,0 -126,47 -48,47 -48,124 0,76 50,124 50,48 127,48z"/>
		<path d="m31442,271v-751h318q119,0 181,65 48,50 48,128 0,120 -121,158v3q67,16 109,63 42,46 42,119 0,86 -55,144 -66,71 -188,71zm94,-85h236q78,0 118,-38 34,-36 34,-87 0,-68 -43,-104 -43,-36 -114,-36h-230zm0,-344h212q68,0 107,-33 39,-33 39,-90 0,-55 -36,-85 -35,-31 -98,-31h-225z"/>
		<path d="m32337,287q-112,0 -187,-62 -74,-62 -78,-162h87q8,68 55,107 46,39 122,39 77,0 123,-47 46,-48 46,-127 0,-79 -48,-125 -47,-46 -121,-46 -109,0 -162,75h-85l80,-386h383v79h-321l-47,216h2q64,-61 165,-61 101,0 172,68 72,68 72,183 0,113 -72,182 -72,68 -186,68z"/>
		<path d="m35435,271v-751h318q119,0 181,65 48,50 48,128 0,120 -121,158v3q67,16 109,63 42,46 42,119 0,86 -55,144 -66,71 -188,71zm94,-85h236q78,0 118,-38 34,-36 34,-87 0,-68 -43,-104 -43,-36 -114,-36h-230zm0,-344h212q68,0 107,-33 39,-33 39,-90 0,-55 -36,-85 -35,-31 -98,-31h-225z"/>
		<path d="m36407,271v-176h-339v-79l356,-471h69v480h119v70h-119v176zm-254,-250v3h254v-337h-2z"/>
		<path d="m39434,271v-751h318q119,0 181,65 48,50 48,128 0,120 -121,158v3q67,16 109,63 42,46 42,119 0,86 -55,144 -66,71 -188,71zm94,-85h236q78,0 118,-38 34,-36 34,-87 0,-68 -43,-104 -43,-36 -114,-36h-230zm0,-344h212q68,0 107,-33 39,-33 39,-90 0,-55 -36,-85 -35,-31 -98,-31h-225z"/>
		<path d="m40345,287q-123,0 -204,-67 -81,-67 -83,-186h87q2,86 54,133 52,46 143,46 78,0 124,-38 46,-39 46,-113 0,-68 -49,-104 -48,-36 -140,-36h-45v-68h44q83,0 126,-33 43,-33 43,-91 0,-58 -45,-91 -44,-35 -111,-35 -77,0 -122,46 -44,45 -44,121h-86q1,-107 69,-171 68,-65 186,-65 103,0 171,54 68,52 68,144 0,111 -119,151v3q145,38 145,184 0,101 -74,159 -72,58 -185,58z"/>
		<path d="m43440,271v-751h318q119,0 181,65 48,50 48,128 0,120 -121,158v3q67,16 109,63 42,46 42,119 0,86 -55,144 -66,71 -188,71zm94,-85h236q78,0 118,-38 34,-36 34,-87 0,-68 -43,-104 -43,-36 -114,-36h-230zm0,-344h212q68,0 107,-33 39,-33 39,-90 0,-55 -36,-85 -35,-31 -98,-31h-225z"/>
		<path d="m44079,271q3,-66 22,-117 20,-50 66,-92 47,-42 74,-60 27,-19 94,-58 2,-2 3,-2 1,-1 3,-2 2,-1 3,-2 2,-1 4,-2 83,-48 118,-83 35,-36 35,-96 0,-66 -43,-107 -42,-41 -113,-41 -72,0 -114,45 -41,44 -41,144h-92q0,-127 68,-195 68,-67 187,-67 108,0 174,62 66,62 66,159 0,39 -12,71 -12,33 -24,52 -13,20 -46,46 -34,25 -50,35 -16,9 -63,36 -9,5 -15,8 -50,28 -84,49 -33,21 -68,59 -36,37 -45,73h393v84z"/>
		<path d="m47551,271v-751h318q119,0 181,65 48,50 48,128 0,120 -121,158v3q67,16 109,63 42,46 42,119 0,86 -55,144 -66,71 -188,71zm94,-85h236q78,0 118,-38 34,-36 34,-87 0,-68 -43,-104 -43,-36 -114,-36h-230zm0,-344h212q68,0 107,-33 39,-33 39,-90 0,-55 -36,-85 -35,-31 -98,-31h-225z"/>
		<path d="m48350,271v-524h-157v-59q160,-4 177,-141h68v723z"/>
	</g>
	<g transform="translate(15,168.5)scale(0.01)">
		<path d="m3546,271 -27,-99h-2q-82,114 -234,114 -157,0 -255,-108 -98,-108 -98,-280 0,-172 95,-282 96,-111 267,-111 128,0 207,65 80,64 99,176h-98q-16,-77 -69,-118 -54,-42 -141,-42 -130,0 -196,86 -66,86 -66,226 0,138 72,223 72,84 187,84 110,0 168,-65 59,-65 59,-166v-18h-226v-82h320v397z"/>
		<path d="m3737,271v-751h100l342,522 55,97h2v-618h88v751h-97l-344,-523 -56,-93h-2v616z"/>
		<path d="m4465,271v-751h273q165,0 249,102 84,102 84,276 0,173 -87,273 -87,100 -253,100zm95,-83h168q247,0 247,-290 0,-296 -239,-296h-175z"/>
		<path d="m6928,271v-751h351q99,0 160,57 62,57 62,149 0,144 -130,186v3q56,20 79,63 24,42 29,128 11,144 35,161v4h-102q-12,-9 -17,-40 -4,-30 -11,-128 -5,-82 -41,-116 -35,-34 -111,-34h-209v317zm94,-669v275h223q78,0 118,-36 40,-37 40,-102 0,-70 -36,-104 -36,-34 -117,-34z"/>
		<path d="m7559,271 260,-384 -242,-366h109l186,300h2l190,-300h104l-246,368 253,383h-113l-193,-316h-2l-202,316z"/>
		<path d="m8384,271v-524h-158v-59q160,-4 177,-141h68v723z"/>
		<path d="m8610,-37v-67h204v-210h69v210h204v67h-204v210h-69v-210z"/>
		<path d="m10928,271v-751h351q99,0 160,57 62,57 62,149 0,144 -130,186v3q56,20 79,63 24,42 29,128 11,144 35,161v4h-102q-12,-9 -17,-40 -4,-30 -11,-128 -5,-82 -41,-116 -35,-34 -111,-34h-209v317zm94,-669v275h223q78,0 118,-36 40,-37 40,-102 0,-70 -36,-104 -36,-34 -117,-34z"/>
		<path d="m11559,271 260,-384 -242,-366h109l186,300h2l190,-300h104l-246,368 253,383h-113l-193,-316h-2l-202,316z"/>
		<path d="m12384,271v-524h-158v-59q160,-4 177,-141h68v723z"/>
		<path d="m12610,-37v-67h477v67z"/>
		<path d="m14930,271 -261,-751h102l185,559 29,101h2q18,-67 29,-101l183,-559h99l-264,751z"/>
		<path d="m15378,271v-751h318q119,0 181,65 48,50 48,128 0,120 -121,158v3q67,16 109,63 42,46 42,119 0,86 -55,144 -66,71 -188,71zm94,-85h236q78,0 118,-38 34,-36 34,-87 0,-68 -43,-104 -43,-36 -114,-36h-230zm0,-344h212q68,0 107,-33 39,-33 39,-90 0,-55 -36,-85 -35,-31 -98,-31h-225z"/>
		<path d="m16329,283q-131,0 -210,-62 -78,-62 -78,-192v-508h94v499q0,183 196,183 190,0 190,-183v-499h94v508q0,129 -80,192 -79,62 -208,62z"/>
		<path d="m17028,286q-151,0 -233,-75 -81,-75 -87,-194h92q19,193 232,193 81,0 129,-36 49,-37 49,-105 0,-30 -12,-54 -12,-23 -28,-38 -16,-15 -48,-27 -33,-13 -61,-20 -27,-7 -76,-18 -58,-13 -96,-25 -38,-14 -76,-37 -38,-23 -57,-59 -18,-37 -18,-88 0,-92 69,-145 70,-54 186,-54 253,0 285,234h-89q-10,-80 -60,-120 -49,-41 -133,-41 -78,0 -124,31 -45,31 -45,89 0,25 9,45 10,19 26,33 17,13 43,23 27,10 54,18 26,6 64,14 53,10 86,20 34,8 75,26 41,18 63,41 23,23 39,61 17,37 17,86 0,103 -77,162 -76,58 -200,58z"/>
		<path d="m19039,286q-151,0 -233,-75 -81,-75 -87,-194h92q19,193 232,193 81,0 129,-36 49,-37 49,-105 0,-30 -12,-54 -12,-23 -28,-38 -16,-15 -48,-27 -33,-13 -61,-20 -27,-7 -76,-18 -58,-13 -96,-25 -38,-14 -76,-37 -38,-23 -57,-59 -18,-37 -18,-88 0,-92 69,-145 70,-54 186,-54 253,0 285,234h-89q-10,-80 -60,-120 -49,-41 -133,-41 -78,0 -124,31 -45,31 -45,89 0,25 9,45 10,19 26,33 17,13 43,23 27,10 54,18 26,6 64,14 53,10 86,20 34,8 75,26 41,18 63,41 23,23 39,61 17,37 17,86 0,103 -77,162 -76,58 -200,58z"/>
		<path d="m19424,271v-751h318q119,0 181,65 48,50 48,128 0,120 -121,158v3q67,16 109,63 42,46 42,119 0,86 -55,144 -66,71 -188,71zm94,-85h236q78,0 118,-38 34,-36 34,-87 0,-68 -43,-104 -43,-36 -114,-36h-230zm0,-344h212q68,0 107,-33 39,-33 39,-90 0,-55 -36,-85 -35,-31 -98,-31h-225z"/>
		<path d="m20375,283q-131,0 -210,-62 -78,-62 -78,-192v-508h94v499q0,183 196,183 190,0 190,-183v-499h94v508q0,129 -80,192 -79,62 -208,62z"/>
		<path d="m20753,271q3,-66 22,-117 20,-50 66,-92 47,-42 74,-60 27,-19 94,-58 2,-2 3,-2 1,-1 3,-2 2,-1 3,-2 2,-1 4,-2 83,-48 118,-83 35,-36 35,-96 0,-66 -43,-107 -42,-41 -113,-41 -72,0 -114,45 -41,44 -41,144h-92q0,-127 68,-195 68,-67 187,-67 108,0 174,62 66,62 66,159 0,39 -12,71 -12,33 -24,52 -13,20 -46,46 -34,25 -50,35 -16,9 -63,36 -9,5 -15,8 -50,28 -84,49 -33,21 -68,59 -36,37 -45,73h393v84z"/>
		<path d="m23417,271v-751h273q165,0 249,102 84,102 84,276 0,173 -87,273 -87,100 -253,100zm94,-83h168q247,0 247,-290 0,-296 -239,-296h-175z"/>
		<path d="m24121,-37v-67h477v67z"/>
		<path d="m27417,271v-751h273q165,0 249,102 84,102 84,276 0,173 -87,273 -87,100 -253,100zm94,-83h168q247,0 247,-290 0,-296 -239,-296h-175z"/>
		<path d="m28121,-37v-67h204v-210h69v210h204v67h-204v210h-69v-210z"/>
		<path d="m31357,286q-159,0 -255,-109 -97,-109 -97,-281 0,-170 96,-280 97,-111 260,-111 128,0 207,66 79,66 94,173h-92q-14,-71 -69,-114 -55,-43 -142,-43 -121,0 -189,87 -68,86 -68,223 0,139 70,224 71,84 188,84 101,0 155,-59 56,-59 63,-148h93q-1,56 -26,114 -24,58 -64,97 -81,79 -225,79z"/>
		<path d="m32102,286q-159,0 -255,-109 -97,-109 -97,-281 0,-170 96,-280 97,-111 260,-111 128,0 207,66 79,66 94,173h-92q-14,-71 -69,-114 -55,-43 -142,-43 -121,0 -189,87 -68,86 -68,223 0,139 70,224 71,84 188,84 101,0 155,-59 56,-59 63,-148h93q-1,56 -26,114 -24,58 -64,97 -81,79 -225,79z"/>
		<path d="m32485,271q3,-66 22,-117 20,-50 66,-92 47,-42 74,-60 27,-19 94,-58 2,-2 3,-2 1,-1 3,-2 2,-1 3,-2 2,-1 4,-2 83,-48 118,-83 35,-36 35,-96 0,-66 -43,-107 -42,-41 -113,-41 -72,0 -114,45 -41,44 -41,144h-92q0,-127 68,-195 68,-67 187,-67 108,0 174,62 66,62 66,159 0,39 -12,71 -12,33 -24,52 -13,20 -46,46 -34,25 -50,35 -16,9 -63,36 -9,5 -15,8 -50,28 -84,49 -33,21 -68,59 -36,37 -45,73h393v84z"/>
		<path d="m34930,271 -261,-751h102l185,559 29,101h2q18,-67 29,-101l183,-559h99l-264,751z"/>
		<path d="m35378,271v-751h318q119,0 181,65 48,50 48,128 0,120 -121,158v3q67,16 109,63 42,46 42,119 0,86 -55,144 -66,71 -188,71zm94,-85h236q78,0 118,-38 34,-36 34,-87 0,-68 -43,-104 -43,-36 -114,-36h-230zm0,-344h212q68,0 107,-33 39,-33 39,-90 0,-55 -36,-85 -35,-31 -98,-31h-225z"/>
		<path d="m36329,283q-131,0 -210,-62 -78,-62 -78,-192v-508h94v499q0,183 196,183 190,0 190,-183v-499h94v508q0,129 -80,192 -79,62 -208,62z"/>
		<path d="m37028,286q-151,0 -233,-75 -81,-75 -87,-194h92q19,193 232,193 81,0 129,-36 49,-37 49,-105 0,-30 -12,-54 -12,-23 -28,-38 -16,-15 -48,-27 -33,-13 -61,-20 -27,-7 -76,-18 -58,-13 -96,-25 -38,-14 -76,-37 -38,-23 -57,-59 -18,-37 -18,-88 0,-92 69,-145 70,-54 186,-54 253,0 285,234h-89q-11,-80 -60,-120 -49,-41 -133,-41 -78,0 -124,31 -45,31 -45,89 0,25 9,45 11,19 26,33 17,13 43,23 27,10 54,18 26,6 64,14 52,10 86,20 34,8 75,26 41,18 63,41 23,23 39,61 17,37 17,86 0,103 -77,162 -76,58 -200,58z"/>
		<path d="m38794,-396v-83h594v83h-250v668h-94v-668z"/>
		<path d="m39426,271 260,-384 -242,-366h109l186,300h2l190,-300h104l-246,368 253,383h-113l-193,-316h-2l-202,316z"/>
		<path d="m40090,271q3,-66 22,-117 20,-50 66,-92 47,-42 74,-60 27,-19 94,-58 2,-2 3,-2 1,-1 3,-2 2,-1 3,-2 2,-1 4,-2 83,-48 118,-83 35,-36 35,-96 0,-66 -43,-107 -42,-41 -113,-41 -72,0 -114,45 -41,44 -41,144h-92q0,-127 68,-195 68,-67 187,-67 108,0 174,62 66,62 66,159 0,39 -12,71 -12,33 -24,52 -13,20 -46,46 -34,25 -50,35 -16,9 -63,36 -9,5 -15,8 -50,28 -84,49 -33,21 -68,59 -36,37 -45,73h393v84z"/>
		<path d="m40697,-37v-67h477v67z"/>
		<path d="m42794,-396v-83h594v83h-250v668h-94v-668z"/>
		<path d="m43426,271 260,-384 -242,-366h109l186,300h2l190,-300h104l-246,368 253,383h-113l-193,-316h-2l-202,316z"/>
		<path d="m44090,271q3,-66 22,-117 20,-50 66,-92 47,-42 74,-60 27,-19 94,-58 2,-2 3,-2 1,-1 3,-2 2,-1 3,-2 2,-1 4,-2 83,-48 118,-83 35,-36 35,-96 0,-66 -43,-107 -42,-41 -113,-41 -72,0 -114,45 -41,44 -41,144h-92q0,-127 68,-195 68,-67 187,-67 108,0 174,62 66,62 66,159 0,39 -12,71 -12,33 -24,52 -13,20 -46,46 -34,25 -50,35 -16,9 -63,36 -9,5 -15,8 -50,28 -84,49 -33,21 -68,59 -36,37 -45,73h393v84z"/>
		<path d="m44697,-37v-67h204v-210h69v210h204v67h-204v210h-69v-210z"/>
		<path d="m47546,271 -27,-99h-2q-82,114 -234,114 -157,0 -255,-108 -98,-108 -98,-280 0,-172 94,-282 96,-111 267,-111 128,0 207,65 80,64 99,176h-98q-16,-77 -69,-118 -54,-42 -141,-42 -130,0 -196,86 -66,86 -66,226 0,138 72,223 72,84 187,84 110,0 168,-65 59,-65 59,-166v-18h-226v-82h320v397z"/>
		<path d="m47737,271v-751h100l342,522 55,97h2v-618h88v751h-97l-344,-523 -56,-93h-2v616z"/>
		<path d="m48465,271v-751h273q165,0 249,102 84,102 84,276 0,173 -87,273 -87,100 -253,100zm94,-83h168q247,0 247,-290 0,-296 -239,-296h-175z"/>
	</g>
</svg>